<?xml version="1.0" standalone="no"?>
<!DOCTYPE svg PUBLIC "-//W3C//DTD SVG 20010904//EN"
 "http://www.w3.org/TR/2001/REC-SVG-20010904/DTD/svg10.dtd">
<svg version="1.0" xmlns="http://www.w3.org/2000/svg"
 width="249.000000pt" height="249.000000pt" viewBox="0 0 249.000000 249.000000"
 preserveAspectRatio="xMidYMid meet">
<metadata>
Created by potrace 1.11, written by Peter Selinger 2001-2013
</metadata>
<g transform="translate(0.000000,249.000000) scale(0.100000,-0.100000)"
fill="#000000" stroke="none">
<path d="M0 1245 l0 -1245 223 0 222 0 -8 122 c-10 147 -2 263 18 295 26 39
54 50 220 88 88 20 165 38 171 40 7 2 21 -25 34 -65 34 -105 125 -231 167
-230 4 0 23 22 41 49 18 26 43 58 57 71 l25 23 0 -196 c0 -125 4 -197 10 -197
6 0 10 65 10 174 0 172 0 174 21 169 17 -5 20 -2 17 13 -2 12 -11 18 -22 16
-13 -2 -17 2 -14 20 2 18 10 24 35 26 28 3 39 -4 86 -55 30 -32 65 -71 79 -87
l24 -28 51 56 c57 62 87 118 105 194 7 29 17 52 23 52 5 -1 86 -20 178 -44
120 -31 176 -51 193 -67 40 -37 47 -87 40 -272 l-6 -167 245 0 245 0 0 1245 0
1245 -1245 0 -1245 0 0 -1245z m1043 720 c76 -42 90 -44 81 -10 l-6 24 54 -29
c59 -31 167 -70 197 -70 17 0 18 4 10 37 -4 21 -6 39 -4 41 2 3 17 0 33 -6 26
-9 29 -7 39 19 6 16 17 29 25 29 7 0 46 -16 86 -35 140 -67 201 -164 187 -298
-6 -54 -4 -68 15 -99 l21 -37 -43 16 c-24 9 -54 26 -68 38 -37 33 -84 45 -196
52 -125 7 -154 1 -154 -32 0 -29 25 -45 72 -46 31 -1 31 -1 8 -8 -40 -13 -88
-40 -92 -52 -3 -8 -28 -12 -79 -10 -58 2 -79 7 -95 22 -12 11 -41 27 -65 34
-43 13 -43 14 -11 14 30 1 72 30 72 50 0 27 -33 34 -148 28 -131 -6 -172 -17
-220 -59 -18 -15 -39 -28 -46 -28 -7 0 -25 -9 -40 -21 -31 -24 -32 -20 -7 29
11 22 21 71 25 120 13 162 78 261 202 306 58 22 77 19 147 -19z m444 -401 c-3
-3 -12 -4 -19 -1 -8 3 -5 6 6 6 11 1 17 -2 13 -5z m-604 -59 c-103 -23 -133
-51 -133 -130 0 -73 25 -90 135 -98 50 -3 112 -11 139 -18 l49 -12 -36 -19
c-78 -40 -243 -40 -296 0 -14 10 -32 31 -39 45 -16 32 -27 146 -18 181 10 40
81 63 201 64 l60 0 -62 -13z m821 -4 c7 -6 16 -8 19 -4 10 10 44 -25 51 -53 8
-31 -11 -148 -29 -184 -20 -39 -83 -62 -175 -62 -74 0 -175 27 -175 47 0 13
51 24 153 31 68 5 100 12 116 25 42 33 39 125 -4 164 -12 11 -51 27 -88 37
l-67 19 93 -5 c52 -3 99 -10 106 -15z m-1119 -22 c0 -17 -6 -25 -22 -27 -17
-3 -23 2 -23 15 0 22 20 45 35 40 5 -2 10 -15 10 -28z m1302 19 c6 -7 13 -26
17 -43 4 -16 3 -25 -1 -19 -4 6 -18 14 -30 18 -13 4 -23 15 -23 25 0 31 20 41
37 19z m-786 -80 c17 -23 20 -39 16 -75 -7 -67 -20 -76 -92 -61 -51 10 -55 13
-34 20 62 23 83 78 51 132 l-20 34 29 -10 c16 -5 39 -23 50 -40z m297 13 c-18
-36 -18 -42 -4 -75 10 -24 26 -41 47 -50 l31 -13 -54 -11 c-63 -13 -73 -5 -84
65 -10 66 13 101 82 123 1 0 -7 -18 -18 -39z m-542 7 c-25 -36 -20 -76 15
-110 l30 -31 -52 5 c-86 9 -106 63 -45 124 40 40 77 49 52 12z m780 -12 c61
-61 41 -115 -45 -124 l-52 -5 30 31 c35 34 40 74 15 110 -25 37 12 28 52 -12z
m-701 -6 c0 -18 -6 -26 -23 -28 -13 -2 -25 3 -28 12 -10 26 4 48 28 44 17 -2
23 -10 23 -28z m549 15 c9 -24 -4 -45 -29 -45 -24 0 -42 30 -30 50 10 15 52
12 59 -5z m-204 -32 c1 -21 7 -67 15 -103 8 -36 14 -86 15 -111 0 -40 -3 -47
-25 -57 -32 -15 -110 -16 -136 -2 -15 8 -19 7 -19 -4 0 -18 60 -46 100 -46 39
0 86 24 101 51 6 12 8 36 4 56 l-6 35 28 -20 c44 -31 140 -55 223 -56 117 0
185 30 217 99 12 27 13 15 11 -115 -3 -126 -6 -151 -26 -191 -44 -90 -143
-182 -273 -252 -204 -111 -401 -105 -614 19 -96 57 -207 164 -238 231 -20 43
-22 66 -24 223 -2 158 -1 171 10 128 30 -106 88 -142 227 -141 203 0 300 78
300 238 0 23 3 45 7 48 3 4 28 7 55 7 l48 0 0 -37z m-360 -782 c0 -23 11 -37
55 -71 30 -24 87 -59 125 -79 l70 -37 -26 -25 c-15 -13 -44 -48 -66 -77 -39
-53 -40 -53 -60 -35 -36 32 -78 101 -104 170 -24 63 -34 149 -19 172 12 20 25
11 25 -18z m636 3 c9 -36 -3 -116 -27 -177 -22 -54 -95 -160 -108 -155 -4 2
-38 35 -74 75 l-68 71 83 40 c92 45 178 113 178 143 0 23 -18 25 -26 4 -4 -8
-16 -15 -28 -15 -19 0 -18 2 9 20 40 26 53 25 61 -6z m-579 -10 c-3 -3 -12 -4
-19 -1 -8 3 -5 6 6 6 11 1 17 -2 13 -5z m170 -46 c57 -9 90 -9 151 2 77 13
141 15 151 4 10 -9 -29 -34 -127 -81 l-93 -45 -60 23 c-34 12 -88 40 -122 62
l-62 41 30 7 c17 4 37 5 44 2 8 -2 48 -9 88 -15z"/>
<path d="M870 999 c-12 -22 -7 -49 10 -49 5 0 10 7 10 15 0 24 48 -3 101 -56
70 -71 98 -82 220 -87 92 -4 112 -1 157 18 46 20 104 70 128 112 14 23 54 33
54 14 0 -9 5 -16 10 -16 14 0 13 43 -2 58 -15 15 -74 16 -83 2 -4 -6 6 -10 22
-10 l28 -1 -34 -14 c-47 -21 -511 -21 -556 0 l-30 13 28 1 c40 1 23 21 -18 21
-24 0 -37 -6 -45 -21z m520 -65 c-68 -22 -176 -28 -259 -15 -141 22 -114 30
99 30 192 -1 202 -2 160 -15z"/>
<path d="M1157 793 c21 -16 113 -16 134 0 13 10 0 12 -68 12 -69 0 -80 -2 -66
-12z"/>
<path d="M636 253 c-10 -10 -7 -122 5 -190 9 -53 14 -63 31 -63 17 0 19 5 14
32 -3 18 -9 74 -12 125 -6 85 -18 115 -38 96z"/>
<path d="M1773 148 c-6 -62 -15 -121 -19 -131 -6 -15 -3 -18 17 -15 29 4 39
45 42 168 2 69 -1 85 -13 88 -13 2 -18 -17 -27 -110z"/>
<path d="M1200 100 c0 -11 7 -20 15 -20 8 0 15 9 15 20 0 11 -7 20 -15 20 -8
0 -15 -9 -15 -20z"/>
</g>
</svg>
